<mxfile host="app.diagrams.net" modified="2023-09-11T09:56:51.653Z" agent="Mozilla/5.0 (Windows NT 10.0; Win64; x64) AppleWebKit/537.36 (KHTML, like Gecko) Chrome/116.0.0.0 Safari/537.36" etag="9r_dxylGia_nehyZwCTg" version="21.6.8" type="github">
  <diagram name="第 1 页" id="TU_cjNvHZZuvAgDjK81o">
    <mxGraphModel dx="2046" dy="648" grid="1" gridSize="10" guides="1" tooltips="1" connect="1" arrows="1" fold="1" page="1" pageScale="1" pageWidth="827" pageHeight="1169" math="0" shadow="0">
      <root>
        <mxCell id="0" />
        <mxCell id="1" parent="0" />
        <mxCell id="yhDWBcCUplNR6x728G6r-8" style="edgeStyle=orthogonalEdgeStyle;rounded=0;orthogonalLoop=1;jettySize=auto;html=1;entryX=1.025;entryY=0.4;entryDx=0;entryDy=0;entryPerimeter=0;" edge="1" parent="1" source="yhDWBcCUplNR6x728G6r-1" target="yhDWBcCUplNR6x728G6r-3">
          <mxGeometry relative="1" as="geometry" />
        </mxCell>
        <mxCell id="yhDWBcCUplNR6x728G6r-9" style="edgeStyle=orthogonalEdgeStyle;rounded=0;orthogonalLoop=1;jettySize=auto;html=1;entryX=1.025;entryY=0.633;entryDx=0;entryDy=0;entryPerimeter=0;" edge="1" parent="1" source="yhDWBcCUplNR6x728G6r-1" target="yhDWBcCUplNR6x728G6r-4">
          <mxGeometry relative="1" as="geometry" />
        </mxCell>
        <mxCell id="yhDWBcCUplNR6x728G6r-10" value="watch" style="edgeLabel;html=1;align=center;verticalAlign=middle;resizable=0;points=[];" vertex="1" connectable="0" parent="yhDWBcCUplNR6x728G6r-9">
          <mxGeometry x="-0.5879" relative="1" as="geometry">
            <mxPoint as="offset" />
          </mxGeometry>
        </mxCell>
        <mxCell id="yhDWBcCUplNR6x728G6r-11" style="edgeStyle=orthogonalEdgeStyle;rounded=0;orthogonalLoop=1;jettySize=auto;html=1;entryX=0;entryY=0.5;entryDx=0;entryDy=0;" edge="1" parent="1" source="yhDWBcCUplNR6x728G6r-1" target="yhDWBcCUplNR6x728G6r-2">
          <mxGeometry relative="1" as="geometry" />
        </mxCell>
        <mxCell id="yhDWBcCUplNR6x728G6r-12" value="invoke" style="edgeLabel;html=1;align=center;verticalAlign=middle;resizable=0;points=[];" vertex="1" connectable="0" parent="yhDWBcCUplNR6x728G6r-11">
          <mxGeometry x="0.0333" relative="1" as="geometry">
            <mxPoint as="offset" />
          </mxGeometry>
        </mxCell>
        <mxCell id="yhDWBcCUplNR6x728G6r-1" value="builderMrg" style="rounded=1;whiteSpace=wrap;html=1;" vertex="1" parent="1">
          <mxGeometry x="140" y="260" width="120" height="60" as="geometry" />
        </mxCell>
        <mxCell id="yhDWBcCUplNR6x728G6r-2" value="build [:8001]" style="rounded=1;whiteSpace=wrap;html=1;" vertex="1" parent="1">
          <mxGeometry x="430" y="130" width="120" height="60" as="geometry" />
        </mxCell>
        <mxCell id="yhDWBcCUplNR6x728G6r-3" value="pkg" style="rounded=1;whiteSpace=wrap;html=1;fillColor=#d5e8d4;strokeColor=#82b366;" vertex="1" parent="1">
          <mxGeometry x="-90" y="200" width="120" height="60" as="geometry" />
        </mxCell>
        <mxCell id="yhDWBcCUplNR6x728G6r-4" value="env" style="rounded=1;whiteSpace=wrap;html=1;fillColor=#d5e8d4;strokeColor=#82b366;" vertex="1" parent="1">
          <mxGeometry x="-90" y="310" width="120" height="60" as="geometry" />
        </mxCell>
      </root>
    </mxGraphModel>
  </diagram>
</mxfile>
